<svg xmlns="http://www.w3.org/2000/svg" viewBox="251 1324.113 151.132 204.472">
  <defs>
    <style>
      .cls-1 {
        fill: #565a62;
      }
    </style>
  </defs>
  <g id="text-document" transform="translate(189.619 1324.113)">
    <path id="Tracé_3" data-name="Tracé 3" class="cls-1" d="M176.829,0H73.918A12.558,12.558,0,0,0,61.381,12.539V191.931a12.553,12.553,0,0,0,12.537,12.541H199.975a12.549,12.549,0,0,0,12.538-12.541V38.773Zm2.959,18.764,15.641,17H179.788Zm22.2,173.168a2.018,2.018,0,0,1-2.014,2.011H73.918a2.013,2.013,0,0,1-2.007-2.011V12.539a2.006,2.006,0,0,1,2.007-2h95.335V41.029a5.267,5.267,0,0,0,5.27,5.257h27.46ZM90.486,56H179.9a3.945,3.945,0,1,1,0,7.89H90.486a3.945,3.945,0,1,1,0-7.89Zm93.36,30.455A3.946,3.946,0,0,1,179.9,90.4H90.486a3.945,3.945,0,1,1,0-7.89H179.9A3.946,3.946,0,0,1,183.846,86.458Zm0,25.642a3.946,3.946,0,0,1-3.945,3.945H90.486a3.945,3.945,0,0,1,0-7.89H179.9A3.946,3.946,0,0,1,183.846,112.1Zm0,26.078a3.946,3.946,0,0,1-3.945,3.945H90.486a3.945,3.945,0,0,1,0-7.89H179.9A3.946,3.946,0,0,1,183.846,138.178Z"/>
  </g>
</svg>
