<svg xmlns="http://www.w3.org/2000/svg" xmlns:xlink="http://www.w3.org/1999/xlink" viewBox="0 0 304.35 615.37"><defs><style>.cls-1{isolation:isolate;}.cls-2{fill:#ccc;}.cls-10,.cls-11,.cls-12,.cls-13,.cls-14,.cls-15,.cls-16,.cls-17,.cls-18,.cls-19,.cls-2,.cls-20,.cls-21,.cls-22,.cls-23,.cls-24,.cls-25,.cls-26,.cls-27,.cls-28,.cls-29,.cls-30,.cls-31,.cls-32,.cls-33,.cls-34,.cls-35,.cls-36,.cls-37,.cls-38,.cls-39,.cls-40,.cls-41,.cls-42,.cls-43,.cls-44,.cls-45,.cls-46,.cls-47,.cls-48,.cls-49,.cls-5,.cls-50,.cls-51,.cls-52,.cls-53,.cls-54,.cls-6,.cls-7,.cls-8,.cls-9{fill-rule:evenodd;}.cls-3{fill:#b0b0b0;}.cls-4,.cls-58{mix-blend-mode:multiply;}.cls-5{fill:#cecece;}.cls-6{fill:#cfcfcf;}.cls-7{fill:#d0d0d0;}.cls-8{fill:#d1d1d1;}.cls-9{fill:#d2d2d2;}.cls-10{fill:#d3d3d3;}.cls-11{fill:#d4d4d4;}.cls-12{fill:#d5d5d5;}.cls-13{fill:#d6d6d6;}.cls-14{fill:#d7d7d7;}.cls-15{fill:#d8d8d8;}.cls-16{fill:#d9d9d9;}.cls-17{fill:#dadada;}.cls-18{fill:#dbdbdb;}.cls-19{fill:#dcdcdc;}.cls-20{fill:#ddd;}.cls-21{fill:#dedede;}.cls-22{fill:#dfdfdf;}.cls-23{fill:#e0e0e0;}.cls-24{fill:#e1e1e1;}.cls-25{fill:#e2e2e2;}.cls-26{fill:#e3e3e3;}.cls-27{fill:#e4e4e4;}.cls-28{fill:#e5e5e5;}.cls-29{fill:#e6e6e6;}.cls-30{fill:#e7e7e7;}.cls-31{fill:#e8e8e8;}.cls-32{fill:#e9e9e9;}.cls-33{fill:#eaeaea;}.cls-34{fill:#ebebeb;}.cls-35{fill:#ececec;}.cls-36,.cls-57{fill:#ededed;}.cls-37{fill:#eee;}.cls-38{fill:#efefef;}.cls-39{fill:#f0f0f0;}.cls-40{fill:#f1f1f1;}.cls-41{fill:#f2f2f2;}.cls-42{fill:#f3f3f3;}.cls-43{fill:#f4f4f4;}.cls-44{fill:#f5f5f5;}.cls-45{fill:#f6f6f6;}.cls-46{fill:#f7f7f7;}.cls-47{fill:#f8f8f8;}.cls-48{fill:#f9f9f9;}.cls-49{fill:#fafafa;}.cls-50{fill:#fbfbfb;}.cls-51{fill:#fcfcfc;}.cls-52{fill:#fdfdfd;}.cls-53{fill:#fefefe;}.cls-54,.cls-59{fill:#fff;}.cls-55{fill:#919191;}.cls-56{fill:#565a62;}.cls-58{fill:url(#New_Gradient_Swatch_7);}.cls-60{fill:#f1f1ef;}.cls-61,.cls-64,.cls-68{opacity:0.3;}.cls-61{fill:url(#New_Gradient_Swatch_6);}.cls-62{fill:url(#New_Gradient_Swatch_2);}.cls-63{fill:url(#New_Gradient_Swatch_22);}.cls-64{fill:url(#New_Gradient_Swatch_6-2);}.cls-65{fill:url(#New_Gradient_Swatch_2-2);}.cls-66{fill:url(#New_Gradient_Swatch_22-2);}.cls-67{fill:url(#New_Gradient_Swatch_6-3);}.cls-68{mix-blend-mode:screen;fill:url(#New_Gradient_Swatch_11);}.cls-69{fill:#78beaa;}</style><linearGradient id="New_Gradient_Swatch_7" x1="361.94" y1="662.72" x2="403.59" y2="662.72" gradientUnits="userSpaceOnUse"><stop offset="0" stop-color="#666"/><stop offset="0.07" stop-color="#dadce1"/><stop offset="0.13" stop-color="#cfd1d6"/><stop offset="0.23" stop-color="#b2b4b7"/><stop offset="0.36" stop-color="#848586"/><stop offset="0.44" stop-color="#666"/><stop offset="0.44" stop-color="#707070"/><stop offset="0.48" stop-color="#969798"/><stop offset="0.51" stop-color="#b5b7b9"/><stop offset="0.55" stop-color="#ced0d3"/><stop offset="0.58" stop-color="#dfe2e6"/><stop offset="0.62" stop-color="#eaedf0"/><stop offset="0.66" stop-color="#edf0f4"/><stop offset="1" stop-color="#666"/></linearGradient><radialGradient id="New_Gradient_Swatch_6" cx="111.45" cy="44.32" r="4.63" gradientUnits="userSpaceOnUse"><stop offset="0" stop-color="#24292d"/><stop offset="1"/></radialGradient><linearGradient id="New_Gradient_Swatch_2" x1="337" y1="130.63" x2="346.5" y2="130.63" gradientUnits="userSpaceOnUse"><stop offset="0" stop-color="#58595b"/><stop offset="0.24" stop-color="#58595b"/><stop offset="0.6" stop-color="#494b4e"/><stop offset="1" stop-color="#24292d"/></linearGradient><radialGradient id="New_Gradient_Swatch_22" cx="111.45" cy="44.32" r="4.27" gradientUnits="userSpaceOnUse"><stop offset="0"/><stop offset="0.18" stop-color="#1a2430"/><stop offset="0.49" stop-color="#1a2430"/><stop offset="0.56" stop-color="#24292d"/><stop offset="0.62" stop-color="#1a2430"/><stop offset="0.75" stop-color="#1a2430"/><stop offset="0.77" stop-color="#1a2430"/><stop offset="0.87" stop-color="#0e141a"/><stop offset="0.99"/></radialGradient><radialGradient id="New_Gradient_Swatch_6-2" cx="152.95" cy="27.38" r="2.52" xlink:href="#New_Gradient_Swatch_6"/><linearGradient id="New_Gradient_Swatch_2-2" x1="380.67" y1="113.7" x2="385.83" y2="113.7" xlink:href="#New_Gradient_Swatch_2"/><radialGradient id="New_Gradient_Swatch_22-2" cx="152.95" cy="27.38" r="2.32" xlink:href="#New_Gradient_Swatch_22"/><radialGradient id="New_Gradient_Swatch_6-3" cx="383.6" cy="131.1" r="16.18" xlink:href="#New_Gradient_Swatch_6"/><linearGradient id="New_Gradient_Swatch_11" x1="373.54" y1="92.7" x2="384.83" y2="135.78" gradientUnits="userSpaceOnUse"><stop offset="0" stop-color="#1a1a1a"/><stop offset="0.14" stop-color="#1f2122"/><stop offset="0.37" stop-color="#2d3338"/><stop offset="0.64" stop-color="#45505b"/><stop offset="0.82" stop-color="#576777"/><stop offset="0.86" stop-color="#546474"/><stop offset="0.89" stop-color="#4b5969"/><stop offset="0.92" stop-color="#3b4858"/></linearGradient></defs><title>iPhoneNotee</title><g class="cls-1"><g id="_2" data-name="2"><path class="cls-2" d="M271.22,86.44H493.93a39.31,39.31,0,0,1,39.26,39.26V662.3a39.31,39.31,0,0,1-39.26,39.25H271.22A39.31,39.31,0,0,1,232,662.3V125.7a39.31,39.31,0,0,1,39.25-39.26Z" transform="translate(-230.3 -86.32)"/><path class="cls-3" d="M493.93,701.68H271.22a39.42,39.42,0,0,1-39.38-39.38V125.7a39.43,39.43,0,0,1,39.38-39.38H493.93a39.43,39.43,0,0,1,39.38,39.38V662.3A39.43,39.43,0,0,1,493.93,701.68ZM271.22,86.57a39.18,39.18,0,0,0-39.13,39.13V662.3a39.17,39.17,0,0,0,39.13,39.13H493.93a39.18,39.18,0,0,0,39.13-39.13V125.7a39.18,39.18,0,0,0-39.13-39.13Z" transform="translate(-230.3 -86.32)"/><path class="cls-3" d="M232.44,168.55c-1.17,0-2.14,1.62-2.14,3.59v17.52c0,2,1,3.59,2.14,3.59s2.14-1.62,2.14-3.59V172.14C234.58,170.17,233.62,168.55,232.44,168.55Z" transform="translate(-230.3 -86.32)"/><path class="cls-3" d="M232.44,220.8c-1.17,0-2.14,1.62-2.14,3.59V262.5c0,2,1,3.59,2.14,3.59s2.14-1.62,2.14-3.59V224.39C234.58,222.42,233.62,220.8,232.44,220.8Z" transform="translate(-230.3 -86.32)"/><path class="cls-3" d="M232.44,277.8c-1.17,0-2.14,1.62-2.14,3.59V319.5c0,2,1,3.59,2.14,3.59s2.14-1.62,2.14-3.59V281.39C234.58,279.42,233.62,277.8,232.44,277.8Z" transform="translate(-230.3 -86.32)"/><path class="cls-3" d="M532.51,220.8c-1.18,0-2.14,1.62-2.14,3.59V262.5c0,2,1,3.59,2.14,3.59s2.14-1.62,2.14-3.59V224.39C534.65,222.42,533.69,220.8,532.51,220.8Z" transform="translate(-230.3 -86.32)"/><g class="cls-4"><path class="cls-5" d="M271.46,86.57H493.32a39.23,39.23,0,0,1,39.11,39.23V662.09a39.22,39.22,0,0,1-39.11,39.23H271.46a39.22,39.22,0,0,1-39.1-39.23V125.81a39.23,39.23,0,0,1,39.1-39.23Z" transform="translate(-230.3 -86.32)"/><path class="cls-5" d="M271.14,86.94c0-.17,33.11-.31,33.28-.31h156c.17,0,33.24.14,33.24.31,21.34,0,38.72,17.94,38.72,39.35V661.62C532.38,683,515,701,493.66,701c0,.17-33.11.31-33.28.31h-156c-.17,0-33.24-.14-33.24-.31-21.34,0-38.72-17.93-38.72-39.34V126.29C232.42,104.88,249.8,86.94,271.14,86.94Z" transform="translate(-230.3 -86.32)"/><path class="cls-6" d="M270.82,87.31c0-.34,32.91-.61,33.25-.61H460.79c.34,0,33.21.27,33.21.61,21.13,0,38.33,18.26,38.33,39.46V661.14c0,21.2-17.2,39.45-38.33,39.45,0,.34-32.91.61-33.25.61H304c-.34,0-33.21-.27-33.21-.61-21.13,0-38.33-18.26-38.33-39.45V126.77C232.49,105.58,249.69,87.31,270.82,87.31Z" transform="translate(-230.3 -86.32)"/><path class="cls-6" d="M270.5,87.69c0-.51,32.72-.92,33.23-.92H461.15c.51,0,33.2.41,33.2.92,20.91,0,37.94,18.59,37.94,39.57V660.67c0,21-17,39.57-37.94,39.57,0,.51-32.72.92-33.23.92H303.69c-.51,0-33.19-.41-33.19-.92-20.91,0-37.94-18.58-37.94-39.57V127.25C232.55,106.27,249.58,87.69,270.5,87.69Z" transform="translate(-230.3 -86.32)"/><path class="cls-7" d="M270.17,88.06c0-.67,32.53-1.22,33.21-1.22H461.52c.68,0,33.17.55,33.17,1.22,20.7,0,37.56,18.91,37.56,39.68V660.2c0,20.77-16.86,39.68-37.56,39.68,0,.67-32.53,1.22-33.21,1.22H303.35c-.68,0-33.17-.55-33.17-1.22-20.7,0-37.55-18.91-37.55-39.68V127.74C232.62,107,249.47,88.06,270.17,88.06Z" transform="translate(-230.3 -86.32)"/><path class="cls-7" d="M269.85,88.43c0-.84,32.34-1.53,33.19-1.53H461.88c.85,0,33.15.68,33.15,1.53,20.49,0,37.17,19.24,37.17,39.79V659.73c0,20.55-16.68,39.79-37.17,39.79,0,.84-32.34,1.53-33.19,1.53H303c-.85,0-33.15-.68-33.15-1.53-20.49,0-37.17-19.23-37.17-39.79V128.22C232.68,107.67,249.37,88.43,269.85,88.43Z" transform="translate(-230.3 -86.32)"/><path class="cls-8" d="M269.53,88.8c0-1,32.15-1.83,33.17-1.83H462.25c1,0,33.13.82,33.13,1.83,20.27,0,36.78,19.56,36.78,39.9V659.26c0,20.34-16.51,39.9-36.78,39.9,0,1-32.15,1.83-33.17,1.83H302.66c-1,0-33.13-.82-33.13-1.83-20.27,0-36.78-19.56-36.78-39.9V128.7C232.75,108.36,249.26,88.8,269.53,88.8Z" transform="translate(-230.3 -86.32)"/><path class="cls-8" d="M269.21,89.17c0-1.18,32-2.14,33.15-2.14H462.61c1.19,0,33.11,1,33.11,2.14,20.06,0,36.4,19.89,36.4,40v529.6c0,20.13-16.33,40-36.4,40,0,1.18-32,2.14-33.15,2.14H302.31c-1.19,0-33.11-1-33.11-2.14-20.06,0-36.39-19.88-36.39-40V129.19C232.81,109.06,249.15,89.17,269.21,89.17Z" transform="translate(-230.3 -86.32)"/><path class="cls-9" d="M268.88,89.54c0-1.35,31.76-2.44,33.12-2.44H463c1.36,0,33.09,1.09,33.09,2.44,19.85,0,36,20.21,36,40.12V658.31c0,19.91-16.16,40.12-36,40.12,0,1.35-31.76,2.44-33.12,2.44H302c-1.36,0-33.09-1.09-33.09-2.44-19.85,0-36-20.21-36-40.12V129.67C232.88,109.76,249,89.54,268.88,89.54Z" transform="translate(-230.3 -86.32)"/><path class="cls-9" d="M268.56,89.92c0-1.52,31.57-2.75,33.1-2.75H463.34c1.53,0,33.07,1.23,33.07,2.75C516,89.92,532,110.45,532,130.15V657.84c0,19.7-16,40.23-35.62,40.23,0,1.52-31.57,2.75-33.1,2.75H301.63c-1.53,0-33.07-1.23-33.07-2.75-19.63,0-35.62-20.53-35.62-40.23V130.15C232.94,110.45,248.93,89.92,268.56,89.92Z" transform="translate(-230.3 -86.32)"/><path class="cls-10" d="M268.24,90.29c0-1.69,31.38-3.06,33.08-3.06H463.71c1.7,0,33,1.37,33,3.06,19.42,0,35.23,20.86,35.23,40.34V657.37c0,19.48-15.81,40.34-35.23,40.34,0,1.69-31.38,3.05-33.08,3.05H301.28c-1.7,0-33-1.37-33-3.05-19.42,0-35.23-20.86-35.23-40.34V130.63C233,111.15,248.82,90.29,268.24,90.29Z" transform="translate(-230.3 -86.32)"/><path class="cls-10" d="M267.92,90.66c0-1.86,31.19-3.36,33.06-3.36h163.1c1.87,0,33,1.5,33,3.36,19.21,0,34.85,21.19,34.85,40.45V656.9c0,19.27-15.64,40.45-34.85,40.45,0,1.86-31.19,3.36-33.06,3.36H300.94c-1.87,0-33-1.5-33-3.36-19.21,0-34.84-21.18-34.84-40.45V131.12C233.07,111.85,248.71,90.66,267.92,90.66Z" transform="translate(-230.3 -86.32)"/><path class="cls-11" d="M267.59,91c0-2,31-3.67,33-3.67H464.44c2,0,33,1.64,33,3.67,19,0,34.46,21.51,34.46,40.57V656.43c0,19.06-15.47,40.57-34.46,40.57,0,2-31,3.67-33,3.67H300.6c-2,0-33-1.64-33-3.67-19,0-34.46-21.51-34.46-40.56V131.6C233.14,112.54,248.6,91,267.59,91Z" transform="translate(-230.3 -86.32)"/><path class="cls-11" d="M267.27,91.4c0-2.19,30.8-4,33-4H464.8c2.21,0,33,1.78,33,4,18.78,0,34.07,21.84,34.07,40.68V656c0,18.84-15.29,40.68-34.07,40.68,0,2.19-30.8,4-33,4H300.25c-2.21,0-33-1.78-33-4-18.78,0-34.07-21.83-34.07-40.67V132.08C233.2,113.24,248.49,91.4,267.27,91.4Z" transform="translate(-230.3 -86.32)"/><path class="cls-12" d="M266.95,91.77c0-2.36,30.61-4.28,33-4.28H465.17c2.38,0,33,1.91,33,4.28,18.57,0,33.69,22.16,33.69,40.79V655.48c0,18.63-15.12,40.79-33.69,40.79,0,2.36-30.61,4.28-33,4.28H299.91c-2.38,0-33-1.92-33-4.28-18.57,0-33.68-22.16-33.68-40.79V132.56C233.27,113.94,248.38,91.77,266.95,91.77Z" transform="translate(-230.3 -86.32)"/><path class="cls-12" d="M266.63,92.15c0-2.53,30.42-4.58,33-4.58H465.53c2.55,0,32.94,2.05,32.94,4.58,18.35,0,33.3,22.49,33.3,40.9V655c0,18.41-14.94,40.9-33.3,40.9,0,2.53-30.42,4.58-33,4.58H299.56c-2.55,0-32.94-2.05-32.94-4.58-18.35,0-33.3-22.48-33.3-40.9V133C233.33,114.63,248.27,92.15,266.63,92.15Z" transform="translate(-230.3 -86.32)"/><path class="cls-13" d="M266.3,92.52c0-2.7,30.23-4.89,32.95-4.89H465.9c2.72,0,32.92,2.19,32.92,4.89,18.14,0,32.91,22.81,32.91,41v521c0,18.2-14.77,41-32.91,41,0,2.7-30.23,4.89-32.95,4.89H299.22c-2.72,0-32.91-2.19-32.91-4.89-18.14,0-32.91-22.81-32.91-41v-521C233.4,115.33,248.17,92.52,266.3,92.52Z" transform="translate(-230.3 -86.32)"/><path class="cls-13" d="M266,92.89c0-2.87,30-5.19,32.93-5.19H466.26c2.89,0,32.9,2.33,32.9,5.19,17.93,0,32.52,23.14,32.52,41.12V654.07c0,18-14.6,41.12-32.52,41.12,0,2.87-30,5.19-32.93,5.19H298.88c-2.89,0-32.89-2.33-32.89-5.19-17.92,0-32.52-23.13-32.52-41.12V134C233.46,116,248.06,92.89,266,92.89Z" transform="translate(-230.3 -86.32)"/><path class="cls-14" d="M265.66,93.26c0-3,29.84-5.5,32.91-5.5H466.63c3.06,0,32.87,2.46,32.87,5.5,17.71,0,32.14,23.46,32.14,41.23V653.6c0,17.77-14.42,41.23-32.14,41.23,0,3-29.84,5.5-32.91,5.5H298.53c-3.06,0-32.87-2.46-32.87-5.5-17.71,0-32.13-23.46-32.13-41.23V134.49C233.53,116.72,247.95,93.26,265.66,93.26Z" transform="translate(-230.3 -86.32)"/><path class="cls-14" d="M265.34,93.63c0-3.21,29.65-5.81,32.88-5.81H467c3.23,0,32.85,2.6,32.85,5.81,17.5,0,31.75,23.79,31.75,41.34V653.12c0,17.56-14.25,41.34-31.75,41.34,0,3.21-29.65,5.8-32.88,5.8H298.19c-3.23,0-32.85-2.6-32.85-5.8-17.5,0-31.75-23.78-31.75-41.34V135C233.59,117.42,247.84,93.63,265.34,93.63Z" transform="translate(-230.3 -86.32)"/><path class="cls-15" d="M265,94c0-3.37,29.46-6.11,32.86-6.11H467.36c3.4,0,32.83,2.74,32.83,6.11,17.29,0,31.36,24.11,31.36,41.45V652.65c0,17.34-14.08,41.45-31.36,41.45,0,3.38-29.46,6.11-32.86,6.11H297.85c-3.4,0-32.83-2.74-32.83-6.11-17.29,0-31.36-24.11-31.36-41.45V135.46C233.65,118.12,247.73,94,265,94Z" transform="translate(-230.3 -86.32)"/><path class="cls-15" d="M264.69,94.38c0-3.54,29.27-6.42,32.84-6.42H467.72c3.57,0,32.81,2.87,32.81,6.42,17.07,0,31,24.44,31,41.56V652.18c0,17.13-13.9,41.57-31,41.57,0,3.54-29.27,6.42-32.84,6.42H297.5c-3.57,0-32.81-2.87-32.81-6.42-17.07,0-31-24.43-31-41.56V135.94C233.72,118.82,247.62,94.38,264.69,94.38Z" transform="translate(-230.3 -86.32)"/><path class="cls-16" d="M264.37,94.75c0-3.71,29.08-6.72,32.82-6.72h170.9c3.74,0,32.79,3,32.79,6.72,16.86,0,30.59,24.76,30.59,41.67V651.71c0,16.92-13.73,41.68-30.59,41.68,0,3.71-29.08,6.72-32.82,6.72H297.16c-3.74,0-32.79-3-32.79-6.72-16.86,0-30.59-24.76-30.59-41.67V136.43C233.78,119.51,247.51,94.75,264.37,94.75Z" transform="translate(-230.3 -86.32)"/><path class="cls-16" d="M264,95.12c0-3.88,28.89-7,32.8-7H468.45c3.91,0,32.77,3.15,32.77,7,16.65,0,30.2,25.09,30.2,41.79V651.24c0,16.7-13.55,41.79-30.2,41.79,0,3.88-28.89,7-32.8,7H296.81c-3.91,0-32.77-3.15-32.77-7-16.64,0-30.2-25.08-30.2-41.78V136.91C233.85,120.21,247.4,95.12,264,95.12Z" transform="translate(-230.3 -86.32)"/><path class="cls-17" d="M263.73,95.49c0-4,28.69-7.33,32.78-7.33H468.82c4.08,0,32.75,3.28,32.75,7.33,16.43,0,29.81,25.41,29.81,41.9V650.76c0,16.49-13.38,41.9-29.81,41.9,0,4-28.69,7.33-32.78,7.33H296.47c-4.08,0-32.75-3.28-32.75-7.33-16.43,0-29.81-25.41-29.81-41.89V137.39C233.91,120.91,247.29,95.49,263.73,95.49Z" transform="translate(-230.3 -86.32)"/><path class="cls-17" d="M263.4,95.86c0-4.22,28.5-7.64,32.75-7.64h173c4.25,0,32.72,3.42,32.72,7.64,16.22,0,29.43,25.74,29.43,42V650.29c0,16.27-13.21,42-29.43,42,0,4.22-28.5,7.64-32.75,7.64h-173c-4.25,0-32.72-3.42-32.72-7.64-16.22,0-29.42-25.73-29.42-42V137.87C234,121.6,247.18,95.86,263.4,95.86Z" transform="translate(-230.3 -86.32)"/><path class="cls-18" d="M263.08,96.23c0-4.39,28.31-7.94,32.73-7.94H469.55c4.42,0,32.7,3.56,32.7,7.94,16,0,29,26.06,29,42.12V649.82c0,16.06-13,42.12-29,42.12,0,4.39-28.31,7.94-32.73,7.94H295.78c-4.42,0-32.7-3.56-32.7-7.94-16,0-29-26.06-29-42.12V138.36C234,122.3,247.08,96.23,263.08,96.23Z" transform="translate(-230.3 -86.32)"/><path class="cls-18" d="M262.76,96.61c0-4.56,28.12-8.25,32.71-8.25H469.91c4.59,0,32.68,3.69,32.68,8.25,15.79,0,28.65,26.39,28.65,42.23V649.35c0,15.84-12.86,42.23-28.65,42.23,0,4.56-28.12,8.25-32.71,8.25H295.44c-4.59,0-32.68-3.69-32.68-8.25-15.79,0-28.65-26.38-28.65-42.23V138.84C234.11,123,247,96.61,262.76,96.61Z" transform="translate(-230.3 -86.32)"/><path class="cls-19" d="M262.44,97c0-4.72,27.93-8.56,32.69-8.56H470.28c4.76,0,32.66,3.83,32.66,8.56,15.58,0,28.26,26.71,28.26,42.34V648.88c0,15.63-12.68,42.34-28.26,42.34,0,4.72-27.93,8.55-32.69,8.55H295.09c-4.76,0-32.66-3.83-32.66-8.55-15.58,0-28.26-26.71-28.26-42.34V139.32C234.17,123.69,246.86,97,262.44,97Z" transform="translate(-230.3 -86.32)"/><path class="cls-19" d="M262.11,97.35c0-4.89,27.73-8.86,32.67-8.86H470.64c4.93,0,32.64,4,32.64,8.86,15.37,0,27.88,27,27.88,42.45V648.41c0,15.42-12.51,42.45-27.88,42.45,0,4.89-27.74,8.86-32.67,8.86H294.75c-4.93,0-32.64-4-32.64-8.86-15.36,0-27.88-27-27.88-42.45V139.8C234.24,124.39,246.75,97.35,262.11,97.35Z" transform="translate(-230.3 -86.32)"/><path class="cls-20" d="M261.79,97.72c0-5.06,27.54-9.17,32.64-9.17H471c5.1,0,32.62,4.1,32.62,9.17,15.15,0,27.49,27.36,27.49,42.56V647.93c0,15.2-12.34,42.57-27.49,42.57,0,5.06-27.54,9.17-32.65,9.17H294.41c-5.1,0-32.62-4.1-32.62-9.17-15.15,0-27.49-27.36-27.49-42.56V140.29C234.3,125.09,246.64,97.72,261.79,97.72Z" transform="translate(-230.3 -86.32)"/><path class="cls-20" d="M261.47,98.09c0-5.23,27.35-9.47,32.62-9.47H471.37c5.27,0,32.6,4.24,32.6,9.47,14.94,0,27.1,27.69,27.1,42.67v506.7c0,15-12.16,42.68-27.1,42.68,0,5.23-27.35,9.47-32.62,9.47H294.06c-5.27,0-32.6-4.24-32.6-9.47-14.94,0-27.1-27.68-27.1-42.67V140.77C234.37,125.78,246.53,98.09,261.47,98.09Z" transform="translate(-230.3 -86.32)"/><path class="cls-21" d="M261.15,98.46c0-5.4,27.16-9.78,32.6-9.78h178c5.44,0,32.58,4.38,32.58,9.78,14.73,0,26.72,28,26.72,42.78V647c0,14.77-12,42.79-26.72,42.79,0,5.4-27.16,9.78-32.6,9.78h-178c-5.44,0-32.57-4.38-32.57-9.78-14.72,0-26.71-28-26.71-42.78V141.25C234.43,126.48,246.42,98.46,261.15,98.46Z" transform="translate(-230.3 -86.32)"/><path class="cls-21" d="M260.82,98.84c0-5.57,27-10.08,32.58-10.08H472.1c5.61,0,32.55,4.51,32.55,10.08,14.51,0,26.33,28.34,26.33,42.89V646.52c0,14.56-11.82,42.9-26.33,42.9,0,5.57-27,10.08-32.58,10.08H293.38c-5.61,0-32.55-4.51-32.55-10.08-14.51,0-26.33-28.33-26.33-42.89V141.74C234.5,127.18,246.31,98.84,260.82,98.84Z" transform="translate(-230.3 -86.32)"/><path class="cls-21" d="M260.5,99.21c0-5.74,26.78-10.39,32.56-10.39H472.47c5.78,0,32.53,4.65,32.53,10.39,14.3,0,25.94,28.66,25.94,43V646c0,14.34-11.64,43-25.94,43,0,5.74-26.78,10.39-32.56,10.39H293c-5.78,0-32.53-4.65-32.53-10.39-14.3,0-25.94-28.66-25.94-43V142.22C234.56,127.87,246.2,99.21,260.5,99.21Z" transform="translate(-230.3 -86.32)"/><path class="cls-22" d="M260.18,99.58c0-5.91,26.58-10.69,32.54-10.69H472.83c6,0,32.51,4.79,32.51,10.69,14.09,0,25.55,29,25.55,43.12V645.58c0,14.13-11.47,43.12-25.55,43.12,0,5.91-26.58,10.69-32.54,10.69H292.69c-6,0-32.51-4.79-32.51-10.69-14.08,0-25.55-29-25.55-43.11V142.7C234.63,128.57,246.09,99.58,260.18,99.58Z" transform="translate(-230.3 -86.32)"/><path class="cls-22" d="M259.86,100c0-6.07,26.39-11,32.51-11H473.2c6.12,0,32.49,4.93,32.49,11,13.87,0,25.17,29.31,25.17,43.23V645.1c0,13.92-11.29,43.23-25.17,43.23,0,6.07-26.39,11-32.51,11H292.35c-6.12,0-32.49-4.92-32.49-11-13.87,0-25.16-29.31-25.16-43.22V143.18C234.69,129.27,246,100,259.86,100Z" transform="translate(-230.3 -86.32)"/><path class="cls-23" d="M259.53,100.32C259.53,94.08,285.73,89,292,89H473.56c6.29,0,32.47,5.06,32.47,11.31,13.66,0,24.78,29.64,24.78,43.34v501c0,13.7-11.12,43.34-24.78,43.34,0,6.24-26.2,11.3-32.49,11.3H292c-6.29,0-32.47-5.06-32.47-11.3-13.66,0-24.78-29.63-24.78-43.34v-501C234.76,130,245.88,100.32,259.53,100.32Z" transform="translate(-230.3 -86.32)"/><path class="cls-23" d="M259.21,100.69c0-6.41,26-11.61,32.47-11.61H473.93c6.46,0,32.45,5.2,32.45,11.61,13.45,0,24.39,30,24.39,43.45v500c0,13.49-10.95,43.45-24.39,43.45,0,6.41-26,11.61-32.47,11.61H291.66c-6.46,0-32.45-5.2-32.45-11.61-13.44,0-24.39-30-24.39-43.45v-500C234.82,130.66,245.77,100.69,259.21,100.69Z" transform="translate(-230.3 -86.32)"/><path class="cls-24" d="M258.89,101.07c0-6.58,25.82-11.92,32.45-11.92h183c6.63,0,32.43,5.34,32.43,11.92,13.23,0,24,30.29,24,43.56V643.69c0,13.28-10.77,43.57-24,43.57,0,6.58-25.82,11.92-32.45,11.92h-183c-6.63,0-32.42-5.33-32.42-11.92-13.23,0-24-30.28-24-43.56V144.63C234.88,131.36,245.66,101.07,258.89,101.07Z" transform="translate(-230.3 -86.32)"/><path class="cls-24" d="M258.57,101.44c0-6.75,25.62-12.22,32.43-12.22H474.66c6.8,0,32.4,5.47,32.4,12.22,13,0,23.62,30.61,23.62,43.67V643.22c0,13.06-10.6,43.68-23.62,43.68,0,6.75-25.62,12.22-32.43,12.22H291c-6.8,0-32.4-5.47-32.4-12.22-13,0-23.62-30.61-23.62-43.67V145.12C235,132.05,245.55,101.44,258.57,101.44Z" transform="translate(-230.3 -86.32)"/><path class="cls-25" d="M258.24,101.81c0-6.92,25.43-12.53,32.41-12.53H475c7,0,32.38,5.61,32.38,12.53,12.81,0,23.23,30.94,23.23,43.78V642.74c0,12.85-10.43,43.79-23.23,43.79,0,6.92-25.43,12.53-32.41,12.53H290.63c-7,0-32.38-5.61-32.38-12.53-12.8,0-23.23-30.93-23.23-43.78V145.6C235,132.75,245.44,101.81,258.24,101.81Z" transform="translate(-230.3 -86.32)"/><path class="cls-25" d="M257.92,102.18c0-7.09,25.24-12.83,32.38-12.83H475.39c7.14,0,32.36,5.75,32.36,12.83,12.59,0,22.84,31.26,22.84,43.89v496.2c0,12.63-10.25,43.9-22.84,43.9,0,7.09-25.24,12.83-32.38,12.83H290.28c-7.14,0-32.36-5.75-32.36-12.83-12.59,0-22.84-31.26-22.84-43.89V146.08C235.08,133.45,245.33,102.18,257.92,102.18Z" transform="translate(-230.3 -86.32)"/><path class="cls-26" d="M257.6,102.55c0-7.26,25-13.14,32.36-13.14H475.75c7.31,0,32.34,5.88,32.34,13.14,12.38,0,22.46,31.59,22.46,44V641.8c0,12.42-10.08,44-22.46,44,0,7.25-25,13.14-32.36,13.14H289.94c-7.31,0-32.34-5.88-32.34-13.14-12.38,0-22.46-31.58-22.46-44V146.56C235.14,134.15,245.22,102.55,257.6,102.55Z" transform="translate(-230.3 -86.32)"/><path class="cls-26" d="M257.28,102.92c0-7.42,24.86-13.44,32.34-13.44h186.5c7.48,0,32.32,6,32.32,13.44,12.16,0,22.07,31.91,22.07,44.11V641.33c0,12.2-9.9,44.12-22.07,44.12,0,7.42-24.86,13.44-32.34,13.44H289.59c-7.48,0-32.32-6-32.32-13.44-12.16,0-22.07-31.91-22.07-44.11V147C235.21,134.84,245.11,102.92,257.28,102.92Z" transform="translate(-230.3 -86.32)"/><path class="cls-27" d="M257,103.3c0-7.59,24.66-13.75,32.32-13.75H476.48c7.65,0,32.3,6.16,32.3,13.75,12,0,21.68,32.24,21.68,44.23V640.86c0,12-9.73,44.23-21.68,44.23,0,7.59-24.67,13.75-32.32,13.75H289.25c-7.65,0-32.3-6.16-32.3-13.75-12,0-21.68-32.23-21.68-44.22V147.53C235.27,135.54,245,103.3,257,103.3Z" transform="translate(-230.3 -86.32)"/><path class="cls-27" d="M256.63,103.67c0-7.76,24.47-14.06,32.3-14.06H476.85c7.82,0,32.28,6.29,32.28,14.06,11.74,0,21.29,32.56,21.29,44.34V640.39c0,11.78-9.56,44.34-21.29,44.34,0,7.76-24.47,14.05-32.3,14.05H288.91c-7.82,0-32.27-6.29-32.27-14.05-11.74,0-21.29-32.56-21.29-44.33V148C235.34,136.24,244.9,103.67,256.63,103.67Z" transform="translate(-230.3 -86.32)"/><path class="cls-28" d="M256.31,104c0-7.93,24.28-14.36,32.27-14.36H477.21c8,0,32.25,6.43,32.25,14.36,11.52,0,20.91,32.89,20.91,44.45V639.91c0,11.56-9.38,44.45-20.91,44.45,0,7.93-24.28,14.36-32.28,14.36H288.56c-8,0-32.25-6.43-32.25-14.36-11.52,0-20.91-32.88-20.91-44.45V148.49C235.4,136.93,244.79,104,256.31,104Z" transform="translate(-230.3 -86.32)"/><path class="cls-28" d="M256,104.41c0-8.1,24.09-14.67,32.25-14.67H477.58c8.16,0,32.23,6.57,32.23,14.67,11.31,0,20.52,33.21,20.52,44.56V639.44c0,11.35-9.21,44.57-20.52,44.57,0,8.1-24.09,14.67-32.25,14.67H288.22c-8.16,0-32.23-6.57-32.23-14.67-11.31,0-20.52-33.21-20.52-44.56V149C235.47,137.63,244.68,104.41,256,104.41Z" transform="translate(-230.3 -86.32)"/><path class="cls-29" d="M255.67,104.78c0-8.27,23.9-15,32.23-15h190c8.33,0,32.21,6.7,32.21,15,11.1,0,20.13,33.54,20.13,44.67V639c0,11.13-9,44.68-20.13,44.68,0,8.27-23.9,15-32.23,15h-190c-8.33,0-32.21-6.7-32.21-15-11.1,0-20.13-33.53-20.13-44.67V149.46C235.53,138.33,244.57,104.78,255.67,104.78Z" transform="translate(-230.3 -86.32)"/><path class="cls-29" d="M255.34,105.15c0-8.44,23.71-15.28,32.21-15.28H478.31c8.5,0,32.19,6.84,32.19,15.28,10.88,0,19.75,33.86,19.75,44.78V638.5c0,10.92-8.86,44.79-19.75,44.79,0,8.44-23.71,15.28-32.21,15.28H287.53c-8.5,0-32.19-6.84-32.19-15.28-10.88,0-19.75-33.86-19.75-44.78V149.94C235.6,139,244.46,105.15,255.34,105.15Z" transform="translate(-230.3 -86.32)"/><path class="cls-30" d="M255,105.53c0-8.61,23.51-15.58,32.19-15.58H478.67c8.67,0,32.17,7,32.17,15.58,10.67,0,19.36,34.19,19.36,44.89V638c0,10.71-8.69,44.9-19.36,44.9,0,8.61-23.51,15.58-32.19,15.58H287.19c-8.67,0-32.17-7-32.17-15.58-10.67,0-19.36-34.18-19.36-44.89V150.42C235.66,139.72,244.35,105.53,255,105.53Z" transform="translate(-230.3 -86.32)"/><path class="cls-30" d="M254.7,105.9C254.7,97.12,278,90,286.86,90H479c8.84,0,32.15,7.11,32.15,15.89,10.46,0,19,34.51,19,45V637.55c0,10.49-8.51,45-19,45,0,8.77-23.32,15.89-32.17,15.89H286.84c-8.84,0-32.15-7.11-32.15-15.89-10.46,0-19-34.51-19-45V150.91C235.73,140.42,244.24,105.9,254.7,105.9Z" transform="translate(-230.3 -86.32)"/><path class="cls-31" d="M254.38,106.27c0-8.94,23.13-16.19,32.14-16.19H479.4c9,0,32.13,7.25,32.13,16.19,10.24,0,18.59,34.84,18.59,45.11v485.7c0,10.28-8.34,45.12-18.59,45.12,0,8.94-23.13,16.19-32.14,16.19H286.5c-9,0-32.12-7.25-32.12-16.19-10.24,0-18.58-34.83-18.58-45.11V151.39C235.79,141.11,244.13,106.27,254.38,106.27Z" transform="translate(-230.3 -86.32)"/><path class="cls-31" d="M254.05,106.64c0-9.11,22.94-16.5,32.12-16.5H479.77c9.18,0,32.11,7.39,32.11,16.5,10,0,18.2,35.16,18.2,45.22V636.61c0,10.06-8.17,45.23-18.2,45.23,0,9.11-22.94,16.5-32.12,16.5H286.16c-9.18,0-32.1-7.39-32.1-16.5-10,0-18.2-35.16-18.2-45.22V151.87C235.86,141.81,244,106.64,254.05,106.64Z" transform="translate(-230.3 -86.32)"/><path class="cls-32" d="M253.73,107c0-9.28,22.75-16.8,32.1-16.8h194.3c9.35,0,32.08,7.52,32.08,16.8C522,107,530,142.5,530,152.35V636.14c0,9.85-8,45.34-17.81,45.34,0,9.28-22.75,16.8-32.1,16.8H285.81c-9.35,0-32.08-7.53-32.08-16.8-9.82,0-17.81-35.48-17.81-45.33V152.36C235.92,142.51,243.91,107,253.73,107Z" transform="translate(-230.3 -86.32)"/><path class="cls-32" d="M253.41,107.38c0-9.45,22.56-17.11,32.08-17.11h195c9.52,0,32.06,7.66,32.06,17.11,9.6,0,17.42,35.81,17.42,45.45V635.67c0,9.63-7.82,45.45-17.42,45.45,0,9.45-22.56,17.11-32.08,17.11h-195c-9.52,0-32.06-7.66-32.06-17.11-9.6,0-17.42-35.81-17.42-45.44V152.84C236,143.2,243.81,107.38,253.41,107.38Z" transform="translate(-230.3 -86.32)"/><path class="cls-33" d="M253.09,107.76c0-9.62,22.36-17.42,32.06-17.42H480.87c9.69,0,32,7.8,32,17.42,9.39,0,17,36.14,17,45.56V635.2c0,9.42-7.65,45.56-17,45.56,0,9.62-22.36,17.42-32.06,17.42H285.13c-9.69,0-32-7.8-32-17.42-9.39,0-17-36.13-17-45.55V153.32C236.05,143.9,243.7,107.76,253.09,107.76Z" transform="translate(-230.3 -86.32)"/><path class="cls-33" d="M252.76,108.13c0-9.79,22.17-17.72,32-17.72H481.23c9.86,0,32,7.93,32,17.72,9.18,0,16.65,36.46,16.65,45.67V634.72c0,9.21-7.47,45.68-16.65,45.68,0,9.79-22.17,17.72-32,17.72H284.78c-9.86,0-32-7.93-32-17.72-9.18,0-16.65-36.46-16.65-45.66V153.8C236.12,144.6,243.59,108.13,252.76,108.13Z" transform="translate(-230.3 -86.32)"/><path class="cls-34" d="M252.44,108.5c0-10,22-18,32-18H481.6c10,0,32,8.07,32,18,9,0,16.26,36.79,16.26,45.78v480c0,9-7.3,45.79-16.26,45.79,0,10-22,18-32,18H284.44c-10,0-32-8.07-32-18-9,0-16.26-36.78-16.26-45.78v-480C236.18,145.29,243.48,108.5,252.44,108.5Z" transform="translate(-230.3 -86.32)"/><path class="cls-34" d="M252.12,108.87c0-10.12,21.79-18.33,32-18.33H482c10.21,0,32,8.21,32,18.33,8.75,0,15.87,37.11,15.87,45.89v479c0,8.78-7.12,45.9-15.87,45.9,0,10.12-21.79,18.33-32,18.33H284.09c-10.2,0-32-8.21-32-18.33-8.75,0-15.87-37.11-15.87-45.89v-479C236.25,146,243.37,108.87,252.12,108.87Z" transform="translate(-230.3 -86.32)"/><path class="cls-35" d="M251.8,109.24c0-10.29,21.6-18.64,32-18.64H482.33c10.37,0,32,8.35,32,18.64,8.54,0,15.49,37.44,15.49,46V633.31c0,8.56-7,46-15.49,46,0,10.29-21.6,18.64-32,18.64H283.75c-10.37,0-32-8.34-32-18.64-8.54,0-15.49-37.43-15.49-46V155.25C236.31,146.69,243.26,109.24,251.8,109.24Z" transform="translate(-230.3 -86.32)"/><path class="cls-35" d="M251.47,109.61c0-10.46,21.4-18.94,31.95-18.94H482.69c10.54,0,31.93,8.48,31.93,18.94,8.32,0,15.1,37.76,15.1,46.11V632.84c0,8.35-6.78,46.12-15.1,46.12,0,10.46-21.41,18.94-31.95,18.94H283.41c-10.54,0-31.93-8.48-31.93-18.94-8.32,0-15.1-37.76-15.1-46.11V155.73C236.38,147.38,243.15,109.61,251.47,109.61Z" transform="translate(-230.3 -86.32)"/><path class="cls-36" d="M251.15,110c0-10.63,21.21-19.25,31.93-19.25h200C493.77,90.74,515,99.36,515,110c8.11,0,14.71,38.09,14.71,46.22V632.37c0,8.14-6.6,46.23-14.71,46.23,0,10.63-21.21,19.25-31.93,19.25h-200c-10.71,0-31.91-8.62-31.91-19.25-8.11,0-14.71-38.08-14.71-46.22V156.22C236.44,148.08,243,110,251.15,110Z" transform="translate(-230.3 -86.32)"/><path class="cls-36" d="M250.83,110.36c0-10.8,21-19.56,31.91-19.56H483.42c10.88,0,31.89,8.76,31.89,19.56,7.9,0,14.33,38.41,14.33,46.33v475.2c0,7.92-6.43,46.34-14.33,46.34,0,10.8-21,19.55-31.91,19.55H282.72c-10.88,0-31.89-8.75-31.89-19.55-7.9,0-14.33-38.41-14.33-46.33V156.7C236.5,148.78,242.93,110.36,250.83,110.36Z" transform="translate(-230.3 -86.32)"/><path class="cls-37" d="M250.51,110.73c0-11,20.83-19.86,31.88-19.86h201.4c11.06,0,31.87,8.89,31.87,19.86,7.68,0,13.94,38.74,13.94,46.44V631.42c0,7.71-6.25,46.45-13.94,46.45,0,11-20.83,19.86-31.88,19.86H282.38c-11.05,0-31.87-8.89-31.87-19.86-7.68,0-13.94-38.73-13.94-46.44V157.18C236.57,149.48,242.82,110.73,250.51,110.73Z" transform="translate(-230.3 -86.32)"/><path class="cls-37" d="M250.18,111.1c0-11.14,20.64-20.17,31.86-20.17h202.1c11.23,0,31.85,9,31.85,20.17,7.47,0,13.55,39.06,13.55,46.55V631c0,7.49-6.08,46.56-13.55,46.56,0,11.14-20.64,20.17-31.86,20.17H282c-11.22,0-31.85-9-31.85-20.17-7.47,0-13.55-39.06-13.55-46.55V157.67C236.63,150.17,242.71,111.1,250.18,111.1Z" transform="translate(-230.3 -86.32)"/><path class="cls-38" d="M249.86,111.47c0-11.31,20.44-20.47,31.84-20.47H484.52c11.39,0,31.83,9.17,31.83,20.47,7.26,0,13.16,39.39,13.16,46.67V630.48c0,7.28-5.91,46.68-13.16,46.68,0,11.3-20.45,20.47-31.84,20.47H281.69c-11.39,0-31.83-9.17-31.83-20.47-7.25,0-13.16-39.38-13.16-46.66V158.15C236.7,150.87,242.61,111.47,249.86,111.47Z" transform="translate(-230.3 -86.32)"/><path class="cls-38" d="M249.54,111.84c0-11.47,20.25-20.78,31.82-20.78H484.88c11.57,0,31.81,9.3,31.81,20.78,7,0,12.78,39.71,12.78,46.78V630c0,7.07-5.73,46.79-12.78,46.79,0,11.47-20.25,20.78-31.82,20.78H281.34c-11.57,0-31.8-9.3-31.8-20.78-7,0-12.78-39.71-12.78-46.77V158.63C236.76,151.57,242.5,111.84,249.54,111.84Z" transform="translate(-230.3 -86.32)"/><path class="cls-38" d="M249.22,112.22c0-11.64,20.06-21.08,31.8-21.08H485.25c11.73,0,31.79,9.44,31.79,21.08,6.83,0,12.39,40,12.39,46.89V629.54c0,6.85-5.56,46.9-12.39,46.9,0,11.64-20.06,21.08-31.8,21.08H281c-11.73,0-31.78-9.44-31.78-21.08-6.83,0-12.39-40-12.39-46.88V159.11C236.83,152.26,242.39,112.22,249.22,112.22Z" transform="translate(-230.3 -86.32)"/><path class="cls-39" d="M248.89,112.59c0-11.81,19.87-21.39,31.77-21.39H485.61c11.91,0,31.76,9.58,31.76,21.39,6.62,0,12,40.36,12,47V629.06c0,6.64-5.39,47-12,47,0,11.81-19.87,21.39-31.78,21.39H280.66c-11.9,0-31.76-9.58-31.76-21.39-6.62,0-12-40.36-12-47V159.6C236.89,153,242.28,112.59,248.89,112.59Z" transform="translate(-230.3 -86.32)"/><path class="cls-39" d="M248.57,113c0-12,19.68-21.69,31.75-21.69H486c12.08,0,31.74,9.71,31.74,21.69,6.4,0,11.62,40.69,11.62,47.11V628.59c0,6.42-5.21,47.12-11.62,47.12,0,12-19.68,21.69-31.75,21.69H280.31c-12.07,0-31.74-9.71-31.74-21.69-6.4,0-11.62-40.68-11.62-47.11V160.08C237,153.66,242.17,113,248.57,113Z" transform="translate(-230.3 -86.32)"/><path class="cls-40" d="M248.25,113.33c0-12.15,19.49-22,31.73-22H486.34c12.25,0,31.72,9.85,31.72,22,6.19,0,11.23,41,11.23,47.22V628.12c0,6.21-5,47.23-11.23,47.23,0,12.15-19.49,22-31.73,22H280c-12.25,0-31.72-9.85-31.72-22-6.19,0-11.23-41-11.23-47.22V160.56C237,154.35,242.06,113.33,248.25,113.33Z" transform="translate(-230.3 -86.32)"/><path class="cls-40" d="M247.93,113.7c0-12.32,19.29-22.3,31.71-22.3H486.71c12.42,0,31.7,10,31.7,22.3,6,0,10.84,41.34,10.84,47.33V627.65c0,6-4.87,47.34-10.84,47.34,0,12.32-19.29,22.3-31.71,22.3H279.63c-12.42,0-31.7-10-31.7-22.3-6,0-10.84-41.33-10.84-47.33V161C237.09,155.05,242,113.7,247.93,113.7Z" transform="translate(-230.3 -86.32)"/><path class="cls-41" d="M247.61,114.07c0-12.49,19.1-22.61,31.69-22.61H487.07c12.58,0,31.68,10.12,31.68,22.61,5.76,0,10.45,41.66,10.45,47.44V627.18c0,5.78-4.69,47.45-10.45,47.45,0,12.49-19.1,22.61-31.69,22.61H279.28c-12.58,0-31.68-10.12-31.68-22.61-5.76,0-10.45-41.66-10.45-47.44V161.53C237.15,155.75,241.84,114.07,247.61,114.07Z" transform="translate(-230.3 -86.32)"/><path class="cls-41" d="M247.28,114.45c0-12.66,18.91-22.92,31.66-22.92H487.44c12.76,0,31.66,10.26,31.66,22.92,5.55,0,10.07,42,10.07,47.55V626.7c0,5.57-4.52,47.56-10.07,47.56,0,12.66-18.91,22.91-31.67,22.91H278.94c-12.75,0-31.65-10.26-31.65-22.91-5.55,0-10.07-42-10.07-47.55V162C237.22,156.44,241.73,114.45,247.28,114.45Z" transform="translate(-230.3 -86.32)"/><path class="cls-42" d="M247,114.82C247,102,265.68,91.6,278.6,91.6H487.8c12.93,0,31.64,10.4,31.64,23.22,5.34,0,9.68,42.31,9.68,47.66V626.23c0,5.35-4.34,47.67-9.68,47.67,0,12.82-18.72,23.22-31.65,23.22H278.59c-12.92,0-31.63-10.4-31.63-23.22-5.34,0-9.68-42.31-9.68-47.66V162.49C237.28,157.14,241.63,114.82,247,114.82Z" transform="translate(-230.3 -86.32)"/><path class="cls-42" d="M246.64,115.19c0-13,18.53-23.53,31.62-23.53H488.17c13.1,0,31.61,10.53,31.61,23.53,5.12,0,9.29,42.64,9.29,47.77v462.8c0,5.14-4.17,47.79-9.29,47.79,0,13-18.53,23.53-31.62,23.53H278.25c-13.1,0-31.61-10.53-31.61-23.53-5.12,0-9.29-42.63-9.29-47.77V163C237.35,157.84,241.52,115.19,246.64,115.19Z" transform="translate(-230.3 -86.32)"/><path class="cls-43" d="M246.32,115.56c0-13.16,18.33-23.83,31.6-23.83H488.53c13.27,0,31.59,10.67,31.59,23.83,4.91,0,8.91,43,8.91,47.89V625.29c0,4.92-4,47.9-8.91,47.9,0,13.16-18.33,23.83-31.6,23.83H277.91c-13.27,0-31.59-10.67-31.59-23.83-4.91,0-8.9-43-8.9-47.88V163.46C237.41,158.53,241.41,115.56,246.32,115.56Z" transform="translate(-230.3 -86.32)"/><path class="cls-43" d="M246,115.93c0-13.33,18.14-24.14,31.58-24.14H488.9c13.44,0,31.57,10.81,31.57,24.14,4.7,0,8.52,43.29,8.52,48V624.82c0,4.71-3.82,48-8.52,48,0,13.33-18.14,24.14-31.58,24.14H277.56C264.13,697,246,686.16,246,672.83c-4.69,0-8.52-43.28-8.52-48V163.94C237.48,159.23,241.3,115.93,246,115.93Z" transform="translate(-230.3 -86.32)"/><path class="cls-44" d="M245.67,116.3c0-13.5,18-24.44,31.56-24.44h212c13.61,0,31.55,10.94,31.55,24.44,4.48,0,8.13,43.61,8.13,48.11V624.35c0,4.5-3.65,48.12-8.13,48.12,0,13.5-18,24.44-31.56,24.44h-212c-13.61,0-31.55-10.94-31.55-24.44-4.48,0-8.13-43.61-8.13-48.1V164.42C237.54,159.93,241.19,116.3,245.67,116.3Z" transform="translate(-230.3 -86.32)"/><path class="cls-44" d="M245.35,116.68c0-13.67,17.76-24.75,31.53-24.75H489.63c13.78,0,31.53,11.08,31.53,24.75,4.27,0,7.74,43.94,7.74,48.22v459c0,4.28-3.48,48.23-7.74,48.23,0,13.67-17.76,24.75-31.54,24.75H276.88c-13.78,0-31.53-11.08-31.53-24.75-4.27,0-7.74-43.93-7.74-48.21v-459C237.61,160.63,241.08,116.68,245.35,116.68Z" transform="translate(-230.3 -86.32)"/><path class="cls-45" d="M245,117C245,103.21,262.59,92,276.54,92H490c13.95,0,31.51,11.22,31.51,25.05,4.06,0,7.36,44.26,7.36,48.33v458c0,4.07-3.3,48.34-7.36,48.34,0,13.84-17.57,25.05-31.51,25.05H276.53c-13.95,0-31.51-11.22-31.51-25.05-4.05,0-7.36-44.26-7.36-48.33v-458C237.67,161.32,241,117,245,117Z" transform="translate(-230.3 -86.32)"/><path class="cls-45" d="M244.7,117.42c0-14,17.37-25.36,31.49-25.36H490.36c14.12,0,31.49,11.36,31.49,25.36,3.84,0,7,44.59,7,48.44V622.93c0,3.85-3.13,48.45-7,48.45,0,14-17.38,25.36-31.49,25.36H276.19c-14.12,0-31.48-11.35-31.48-25.36-3.84,0-7-44.58-7-48.44V165.87C237.73,162,240.86,117.42,244.7,117.42Z" transform="translate(-230.3 -86.32)"/><path class="cls-46" d="M244.38,117.79c0-14.17,17.18-25.67,31.47-25.67H490.72c14.29,0,31.46,11.49,31.46,25.67,3.63,0,6.58,44.91,6.58,48.55V622.46c0,3.64-3,48.56-6.58,48.56,0,14.17-17.18,25.66-31.47,25.66H275.84c-14.29,0-31.46-11.49-31.46-25.66-3.63,0-6.58-44.91-6.58-48.55V166.36C237.8,162.72,240.75,117.79,244.38,117.79Z" transform="translate(-230.3 -86.32)"/><path class="cls-46" d="M244.06,118.16c0-14.34,17-26,31.45-26H491.09c14.46,0,31.44,11.63,31.44,26,3.41,0,6.19,45.24,6.19,48.66V622c0,3.43-2.78,48.68-6.19,48.68,0,14.34-17,26-31.45,26H275.5c-14.46,0-31.44-11.63-31.44-26-3.41,0-6.19-45.23-6.19-48.66V166.84C237.86,163.41,240.64,118.16,244.06,118.16Z" transform="translate(-230.3 -86.32)"/><path class="cls-47" d="M243.74,118.53c0-14.51,16.8-26.28,31.43-26.28H491.45c14.63,0,31.42,11.77,31.42,26.28,3.2,0,5.81,45.56,5.81,48.77V621.51c0,3.21-2.61,48.79-5.81,48.79,0,14.51-16.8,26.28-31.43,26.28H275.16c-14.63,0-31.42-11.77-31.42-26.28-3.2,0-5.81-45.56-5.81-48.77V167.32C237.93,164.11,240.54,118.53,243.74,118.53Z" transform="translate(-230.3 -86.32)"/><path class="cls-47" d="M243.41,118.91c0-14.68,16.61-26.58,31.4-26.58h217c14.8,0,31.4,11.9,31.4,26.58,3,0,5.42,45.89,5.42,48.88V621c0,3-2.43,48.9-5.42,48.9,0,14.68-16.61,26.58-31.41,26.58h-217c-14.8,0-31.4-11.9-31.4-26.58-3,0-5.42-45.88-5.42-48.88V167.8C238,164.81,240.43,118.91,243.41,118.91Z" transform="translate(-230.3 -86.32)"/><path class="cls-48" d="M243.09,119.28c0-14.85,16.42-26.89,31.38-26.89H492.18c15,0,31.38,12,31.38,26.89,2.77,0,5,46.21,5,49v452.3c0,2.78-2.26,49-5,49,0,14.85-16.42,26.89-31.38,26.89H274.47c-15,0-31.38-12-31.38-26.89-2.77,0-5-46.21-5-49V168.29C238.06,165.5,240.32,119.28,243.09,119.28Z" transform="translate(-230.3 -86.32)"/><path class="cls-48" d="M242.77,119.65c0-15,16.22-27.19,31.36-27.19H492.55c15.14,0,31.36,12.18,31.36,27.19,2.56,0,4.65,46.54,4.65,49.11V620.1c0,2.57-2.08,49.12-4.65,49.12,0,15-16.23,27.19-31.36,27.19H274.13c-15.14,0-31.36-12.18-31.36-27.19-2.56,0-4.65-46.53-4.65-49.1V168.77C238.12,166.2,240.21,119.65,242.77,119.65Z" transform="translate(-230.3 -86.32)"/><path class="cls-49" d="M242.45,120c0-15.19,16-27.5,31.34-27.5H492.91c15.31,0,31.34,12.31,31.34,27.5,2.35,0,4.26,46.86,4.26,49.22V619.63c0,2.35-1.91,49.23-4.26,49.23,0,15.19-16,27.5-31.34,27.5H273.78c-15.31,0-31.33-12.31-31.33-27.5-2.35,0-4.26-46.86-4.26-49.21V169.25C238.19,166.9,240.1,120,242.45,120Z" transform="translate(-230.3 -86.32)"/><path class="cls-49" d="M242.12,120.39c0-15.36,15.84-27.8,31.32-27.8H493.28c15.48,0,31.32,12.45,31.32,27.8,2.13,0,3.87,47.19,3.87,49.33V619.16c0,2.14-1.74,49.34-3.87,49.34,0,15.35-15.84,27.8-31.32,27.8H273.44c-15.48,0-31.31-12.45-31.31-27.8-2.13,0-3.87-47.18-3.87-49.33V169.73C238.25,167.59,240,120.39,242.12,120.39Z" transform="translate(-230.3 -86.32)"/><path class="cls-50" d="M241.8,120.76c0-15.52,15.65-28.11,31.3-28.11H493.64c15.65,0,31.29,12.59,31.29,28.11,1.92,0,3.48,47.51,3.48,49.44V618.68c0,1.93-1.56,49.45-3.48,49.45,0,15.52-15.65,28.11-31.3,28.11H273.09c-15.65,0-31.29-12.59-31.29-28.11-1.92,0-3.48-47.51-3.48-49.44V170.22C238.32,168.29,239.88,120.76,241.8,120.76Z" transform="translate(-230.3 -86.32)"/><path class="cls-50" d="M241.48,121.14c0-15.69,15.46-28.42,31.27-28.42H494c15.82,0,31.27,12.72,31.27,28.42,1.71,0,3.1,47.84,3.1,49.55V618.21c0,1.71-1.39,49.56-3.1,49.56,0,15.69-15.46,28.42-31.28,28.42H272.75c-15.82,0-31.27-12.72-31.27-28.42-1.71,0-3.1-47.83-3.1-49.55V170.7C238.38,169,239.77,121.14,241.48,121.14Z" transform="translate(-230.3 -86.32)"/><path class="cls-51" d="M241.16,121.51c0-15.86,15.27-28.72,31.25-28.72h222c16,0,31.25,12.86,31.25,28.72,1.49,0,2.71,48.16,2.71,49.66V617.74c0,1.5-1.22,49.67-2.71,49.67,0,15.86-15.27,28.72-31.25,28.72h-222c-16,0-31.25-12.86-31.25-28.72-1.49,0-2.71-48.16-2.71-49.66V171.18C238.45,169.68,239.66,121.51,241.16,121.51Z" transform="translate(-230.3 -86.32)"/><path class="cls-51" d="M240.84,121.88c0-16,15.07-29,31.23-29H494.74c16.16,0,31.23,13,31.23,29,1.28,0,2.32,48.49,2.32,49.77V617.27c0,1.29-1,49.79-2.32,49.79,0,16-15.07,29-31.23,29H272.06c-16.16,0-31.23-13-31.23-29-1.28,0-2.32-48.48-2.32-49.77V171.67C238.51,170.38,239.55,121.88,240.84,121.88Z" transform="translate(-230.3 -86.32)"/><path class="cls-52" d="M240.51,122.25c0-16.2,14.88-29.33,31.21-29.33H495.1c16.33,0,31.21,13.13,31.21,29.33,1.07,0,1.94,48.81,1.94,49.88V616.8c0,1.07-.87,49.9-1.94,49.9,0,16.2-14.88,29.33-31.21,29.33H271.72c-16.33,0-31.21-13.13-31.21-29.33-1.07,0-1.94-48.81-1.94-49.88V172.15C238.58,171.08,239.45,122.25,240.51,122.25Z" transform="translate(-230.3 -86.32)"/><path class="cls-52" d="M240.19,122.62c0-16.37,14.69-29.64,31.19-29.64H495.47c16.5,0,31.19,13.27,31.19,29.64.85,0,1.55,49.14,1.55,50V616.33c0,.86-.7,50-1.55,50C526.65,682.7,512,696,495.47,696H271.38c-16.5,0-31.19-13.27-31.19-29.64-.85,0-1.55-49.13-1.55-50V172.63C238.64,171.77,239.34,122.62,240.19,122.62Z" transform="translate(-230.3 -86.32)"/><path class="cls-53" d="M239.87,123c0-16.54,14.5-29.94,31.16-29.94h224.8C512.5,93.05,527,106.46,527,123c.64,0,1.16,49.46,1.16,50.1V615.85c0,.64-.52,50.12-1.16,50.12,0,16.54-14.5,29.94-31.17,29.94H271c-16.67,0-31.16-13.41-31.16-29.94-.64,0-1.16-49.46-1.16-50.1V173.11C238.71,172.47,239.23,123,239.87,123Z" transform="translate(-230.3 -86.32)"/><path class="cls-53" d="M239.54,123.37c0-16.71,14.31-30.25,31.14-30.25H496.2c16.84,0,31.14,13.54,31.14,30.25.43,0,.77,49.79.77,50.21v441.8c0,.43-.35,50.23-.77,50.23,0,16.71-14.31,30.25-31.14,30.25H270.69c-16.84,0-31.14-13.54-31.14-30.25-.43,0-.77-49.78-.77-50.21V173.6C238.77,173.17,239.12,123.37,239.54,123.37Z" transform="translate(-230.3 -86.32)"/><path class="cls-54" d="M239.22,123.74c0-16.87,14.11-30.55,31.12-30.55H496.56c17,0,31.12,13.68,31.12,30.55.21,0,.39,50.11.39,50.33V614.91c0,.21-.17,50.34-.39,50.34,0,16.87-14.12,30.55-31.12,30.55H270.34c-17,0-31.12-13.68-31.12-30.55-.21,0-.39-50.11-.39-50.32V174.08C238.84,173.86,239,123.74,239.22,123.74Z" transform="translate(-230.3 -86.32)"/><path class="cls-54" d="M528,664.89a31,31,0,0,1-31.1,30.86H270a31,31,0,0,1-31.1-30.86V124.11A31,31,0,0,1,270,93.25H496.93A31,31,0,0,1,528,124.11Z" transform="translate(-230.3 -86.32)"/></g><rect class="cls-55" x="1.54" y="40.03" width="7.72" height="4.02"/><rect class="cls-55" x="295.28" y="40.03" width="7.72" height="4.02"/><rect class="cls-55" x="1.54" y="568.73" width="7.72" height="4.02"/><rect class="cls-55" x="295.28" y="568.73" width="7.72" height="4.02"/><path class="cls-54" d="M527.13,664.91A31,31,0,0,1,496,695.77H269.1A31,31,0,0,1,238,664.91V124.09a31,31,0,0,1,31.1-30.86H496a31,31,0,0,1,31.1,30.86Z" transform="translate(-230.3 -86.32)"/><rect class="cls-56" x="18.83" y="68.59" width="268" height="476.52"/><path class="cls-57" d="M382.76,683.55a20.83,20.83,0,1,1,20.82-20.83A20.85,20.85,0,0,1,382.76,683.55Z" transform="translate(-230.3 -86.32)"/><path class="cls-58" d="M382.76,683.55a20.83,20.83,0,1,1,20.82-20.83A20.85,20.85,0,0,1,382.76,683.55Z" transform="translate(-230.3 -86.32)"/><circle class="cls-59" cx="152.46" cy="576.41" r="19.22"/><path class="cls-60" d="M382.76,644.25a18.47,18.47,0,1,1-18.47,18.47,18.49,18.49,0,0,1,18.47-18.47m0-.75A19.22,19.22,0,1,0,402,662.72a19.22,19.22,0,0,0-19.22-19.22Z" transform="translate(-230.3 -86.32)"/><circle class="cls-61" cx="111.45" cy="44.31" r="4.63"/><path class="cls-62" d="M341.75,126a4.63,4.63,0,1,1-4.62,4.62,4.63,4.63,0,0,1,4.63-4.62m0-.12a4.75,4.75,0,1,0,4.75,4.75,4.75,4.75,0,0,0-4.75-4.75Z" transform="translate(-230.3 -86.32)"/><circle class="cls-63" cx="111.45" cy="44.31" r="4.27"/><circle class="cls-64" cx="152.95" cy="27.38" r="2.52"/><path class="cls-65" d="M383.25,111.18a2.52,2.52,0,1,1-2.52,2.52,2.52,2.52,0,0,1,2.52-2.52m0-.07a2.58,2.58,0,1,0,2.58,2.58,2.59,2.59,0,0,0-2.58-2.58Z" transform="translate(-230.3 -86.32)"/><circle class="cls-66" cx="152.95" cy="27.38" r="2.32"/><path class="cls-67" d="M362.4,132.72a1.62,1.62,0,1,1,0-3.24H404.8a1.62,1.62,0,1,1,0,3.24Z" transform="translate(-230.3 -86.32)"/><path class="cls-68" d="M362.4,132.72a1.62,1.62,0,1,1,0-3.24H404.8a1.62,1.62,0,1,1,0,3.24Z" transform="translate(-230.3 -86.32)"/><path class="cls-69" d="M361.67,377.87v70c0,.86-.16,1.73-.24,2.59a57.46,57.46,0,0,1-34.61,0c0-1.11-.15-2.22-.15-3.33q0-64.45,0-128.9c0-4.06.54-5,4.38-6.19a86.65,86.65,0,0,1,24.3-3.74,8.32,8.32,0,0,1,7.69,4.05c10.33,15.36,20.91,30.58,31.38,45.87q11.41,16.64,22.8,33.29l.5.14q0-13.8.07-27.6V318.16c0-2.11.75-3.25,2.74-3.82A54,54,0,0,1,435,312.7a55.83,55.83,0,0,1,15,1.64c1.91.54,2.92,1.41,2.92,3.6q-.07,65.8,0,131.59c0,.63-.09,1.26-.13,1.91-9.33,4.42-19.31,5.24-29.41,5.24-2.18,0-4.35-.23-5.83-2.45-4.32-6.45-8.81-12.78-13.2-19.18l-36.65-53.51c-1.8-2.62-3.65-5.2-5.73-8.17A10.61,10.61,0,0,0,361.67,377.87Z" transform="translate(-230.3 -86.32)"/></g></g></svg>