<svg id="Calque_1" data-name="Calque 1" xmlns="http://www.w3.org/2000/svg" viewBox="0 0 613.23 720.81"><defs><style>.cls-1{fill:#78beaa;}</style></defs><title>logo-site</title><path class="cls-1" d="M387.75,466V806c0,4.18-.78,8.4-1.17,12.58a279.1,279.1,0,0,1-168.11,0c0-5.39-.73-10.78-.73-16.17V176.32c0-19.72,2.62-24.29,21.28-30.07a420.88,420.88,0,0,1,118-18.17,40.41,40.41,0,0,1,37.35,19.67C444.58,222.37,496,296.29,546.83,370.56q55.42,80.83,110.75,161.7l2.43.68q0-67,.34-134.06V176c0-10.25,3.64-15.79,13.31-18.55a262.3,262.3,0,0,1,70.29-8,271.18,271.18,0,0,1,72.86,8C826.07,160,831,164.27,831,174.91q-.34,319.61,0,639.17c0,3.06-.44,6.12-.63,9.28-45.32,21.47-93.79,25.45-142.85,25.45-10.59,0-21.13-1.12-28.32-11.9-21-31.33-42.79-62.08-64.12-93.16L417,483.83c-8.74-12.73-17.73-25.26-27.83-39.68A51.54,51.54,0,0,0,387.75,466Z" transform="translate(-217.74 -128)"/></svg>