<svg xmlns="http://www.w3.org/2000/svg" viewBox="1443 1691 227.267 237.095">
  <defs>
    <style>
      .cls-1 {
        fill: #fff;
      }
    </style>
  </defs>
  <path id="network" class="cls-1" d="M202.474,0C188.8,0,177.681,11.6,177.681,25.865a26.6,26.6,0,0,0,3,12.329L140.066,80.565a31.772,31.772,0,0,0-40.474,0L67.9,47.5a17.57,17.57,0,0,0,2.343-8.7c0-9.51-7.413-17.243-16.528-17.243S37.189,29.288,37.189,38.8,44.6,56.041,53.718,56.041A15.808,15.808,0,0,0,62.06,53.6L93.75,86.656a35.439,35.439,0,0,0,0,42.225l-52.329,54.6a24.117,24.117,0,0,0-16.628-6.734C11.12,176.744,0,188.344,0,202.609s11.12,25.865,24.793,25.865,24.793-11.6,24.793-25.865a26.6,26.6,0,0,0-3-12.329l53.011-55.3a32.154,32.154,0,0,0,16.107,6.979v43.8C104,187.814,95.043,198.436,95.043,211.23c0,14.264,11.12,25.865,24.793,25.865s24.793-11.6,24.793-25.865c0-12.79-8.954-23.412-20.661-25.477v-43.8a32.154,32.154,0,0,0,16.107-6.979l31.689,33.06a17.558,17.558,0,0,0-2.347,8.708c0,9.51,7.413,17.243,16.528,17.243s16.528-7.734,16.528-17.243S195.061,159.5,185.945,159.5a15.808,15.808,0,0,0-8.343,2.444l-31.689-33.06a35.439,35.439,0,0,0,0-42.225L185.85,45a24.1,24.1,0,0,0,16.624,6.734c13.673,0,24.793-11.6,24.793-25.865S216.147,0,202.474,0Z" transform="translate(1443 1691)"/>
</svg>
